# xmcd
#
# Track frame offsets:
# 150
# 12339
# 25680
# 37311
# 51578
# 61699
# 77192
# 89461
# 100409
# 111626
# 125274
# 139034
# 158910
# 165726
# 179808
# 193524
# 208695
# 222311
# 238516
# 249821
# 264497
# 281944
# 290626
# 304394
#
# Disc length: 4163 seconds
#
# Revision: 0
# Processed by: cddbd v1.5PL3 Copyright (c) Steve Scherf et al.
# Submitted via: Audion 3.0.2 (http://www.panic.com/audion/)
#
DISCID=72104118
DTITLE=Hollywood Musical - 1940-1945
DYEAR=1900
DGENRE=
TTITLE0=Waltzing in the clouds
TTITLE1=Our love affair
TTITLE2=The last time i saw Paris
TTITLE3=You stepped out of a dream
TTITLE4=I yi, yi, yi, I like you very much
TTITLE5=Chattanooga Choo Choo
TTITLE6=Dream dancing
TTITLE7=The man with the lollipop song
TTITLE8=How about you
TTITLE9=That old black magic
TTITLE10=White christmas
TTITLE11=For me and my gal
TTITLE12=Dearly beloved
TTITLE13=The lady in the tutti-frutti hat
TTITLE14=Could you use me
TTITLE15=Stormy weather
TTITLE16=Happiness is just a thing called Joe
TTITLE17=Can't help singing
TTITLE18=Swinging on a star
TTITLE19=Put me to the test
TTITLE20=The trolley song
TTITLE21=Bim bam boom
TTITLE22=The more i see you
TTITLE23=I fall in love too easily
EXTD=
EXTT0=
EXTT1=
EXTT2=
EXTT3=
EXTT4=
EXTT5=
EXTT6=
EXTT7=
EXTT8=
EXTT9=
EXTT10=
EXTT11=
EXTT12=
EXTT13=
EXTT14=
EXTT15=
EXTT16=
EXTT17=
EXTT18=
EXTT19=
EXTT20=
EXTT21=
EXTT22=
EXTT23=
PLAYORDER=
